<svg width="20" height="15" viewBox="0 0 20 15" fill="none" xmlns="http://www.w3.org/2000/svg">
<path d="M9.31167 3.9227L3.19001 8.96459V14.4063C3.19001 14.5471 3.24598 14.6823 3.34561 14.7819C3.44524 14.8815 3.58037 14.9375 3.72126 14.9375L7.442 14.9279C7.58244 14.9272 7.71688 14.8709 7.81594 14.7713C7.91499 14.6718 7.9706 14.5371 7.9706 14.3966V11.2188C7.9706 11.0779 8.02657 10.9427 8.1262 10.8431C8.22583 10.7435 8.36095 10.6875 8.50185 10.6875H10.6268C10.7677 10.6875 10.9029 10.7435 11.0025 10.8431C11.1021 10.9427 11.1581 11.0779 11.1581 11.2188V14.3943C11.1579 14.4642 11.1715 14.5335 11.1981 14.5981C11.2247 14.6628 11.2638 14.7215 11.3131 14.771C11.3625 14.8205 11.4211 14.8598 11.4857 14.8866C11.5502 14.9134 11.6194 14.9272 11.6893 14.9272L15.4088 14.9375C15.5497 14.9375 15.6848 14.8815 15.7844 14.7819C15.884 14.6823 15.94 14.5471 15.94 14.4063V8.96094L9.81968 3.9227C9.74773 3.8647 9.65809 3.83307 9.56568 3.83307C9.47326 3.83307 9.38362 3.8647 9.31167 3.9227ZM18.9814 7.34959L16.2056 5.06157V0.462601C16.2056 0.356929 16.1637 0.255584 16.0889 0.180863C16.0142 0.106141 15.9129 0.0641632 15.8072 0.0641632H13.9478C13.8422 0.0641632 13.7408 0.106141 13.6661 0.180863C13.5914 0.255584 13.5494 0.356929 13.5494 0.462601V2.87348L10.5767 0.427737C10.2914 0.192984 9.93346 0.0646325 9.56402 0.0646325C9.19457 0.0646325 8.8366 0.192984 8.55132 0.427737L0.146613 7.34959C0.106267 7.38294 0.0728875 7.42391 0.048381 7.47016C0.0238744 7.51641 0.00872144 7.56704 0.00378792 7.61915C-0.0011456 7.67126 0.004237 7.72383 0.0196282 7.77386C0.0350193 7.82389 0.0601174 7.8704 0.0934883 7.91073L0.940168 8.94002C0.973448 8.98049 1.01438 9.014 1.06063 9.03862C1.10687 9.06325 1.15752 9.07851 1.20967 9.08354C1.26183 9.08857 1.31446 9.08326 1.36456 9.06792C1.41466 9.05258 1.46124 9.02751 1.50163 8.99414L9.31167 2.56137C9.38362 2.50337 9.47326 2.47175 9.56568 2.47175C9.65809 2.47175 9.74773 2.50337 9.81968 2.56137L17.6301 8.99414C17.6704 9.02752 17.7169 9.05261 17.7669 9.068C17.8169 9.0834 17.8695 9.08878 17.9216 9.08384C17.9737 9.07891 18.0244 9.06376 18.0706 9.03925C18.1169 9.01474 18.1578 8.98137 18.1912 8.94102L19.0379 7.91172C19.0712 7.87116 19.0962 7.82442 19.1114 7.77417C19.1266 7.72392 19.1317 7.67116 19.1265 7.61892C19.1213 7.56669 19.1057 7.516 19.0808 7.46978C19.0559 7.42356 19.0222 7.38271 18.9814 7.34959Z" fill="#F8F8F8"/>
</svg>
