<svg width="21" height="21" viewBox="0 0 21 21" fill="none" xmlns="http://www.w3.org/2000/svg">
<path d="M15.8021 9.45832H20.8646C20.7003 7.82508 20.1505 6.2542 19.2604 4.87499C18.359 5.30603 17.5743 5.94737 16.9724 6.74499C16.3706 7.54262 15.9692 8.47318 15.8021 9.45832ZM5.19791 9.45832C5.0308 8.47318 4.62942 7.54262 4.02758 6.74499C3.42573 5.94737 2.64104 5.30603 1.73958 4.87499C0.849497 6.2542 0.299689 7.82508 0.135414 9.45832H5.19791ZM13.6979 9.45832C13.8609 8.15713 14.3289 6.91283 15.0639 5.82674C15.7988 4.74066 16.7798 3.8435 17.9271 3.20832C16.2248 1.467 13.9646 0.379322 11.5417 0.135406V9.45832H13.6979ZM7.30208 9.45832H9.45833V0.135406C7.03476 0.377062 4.77387 1.46509 3.07291 3.20832C4.22018 3.8435 5.20122 4.74066 5.93614 5.82674C6.67105 6.91283 7.13907 8.15713 7.30208 9.45832ZM13.6979 11.5417H11.5417V20.8646C13.9652 20.6229 16.2261 19.5349 17.9271 17.7917C16.7798 17.1565 15.7988 16.2593 15.0639 15.1732C14.3289 14.0872 13.8609 12.8429 13.6979 11.5417ZM1.73958 16.125C2.63889 15.691 3.42175 15.0488 4.0232 14.2517C4.62465 13.4546 5.02736 12.5255 5.19791 11.5417H0.135414C0.302081 13.2187 0.874997 14.7812 1.73958 16.125ZM15.8021 11.5417C15.9692 12.5268 16.3706 13.4574 16.9724 14.255C17.5743 15.0526 18.359 15.6939 19.2604 16.125C20.1505 14.7458 20.7003 13.1749 20.8646 11.5417H15.8021ZM7.30208 11.5417C7.13907 12.8429 6.67105 14.0872 5.93614 15.1732C5.20122 16.2593 4.22018 17.1565 3.07291 17.7917C4.77524 19.533 7.03539 20.6207 9.45833 20.8646V11.5417H7.30208Z" fill="#847D7D"/>
</svg>
