<svg width="16" height="23" viewBox="0 0 16 23" fill="none" xmlns="http://www.w3.org/2000/svg">
<path d="M14.1979 8.03124H15.7917V22.9583H14.1979V12.125C13.3646 11.9583 12.5833 11.6458 11.8437 11.1979C11.1042 10.75 10.4792 10.2292 9.94791 9.62499L9.30208 12.8229L11.625 15.1146V22.9583H9.54166V16.7083L7.20833 14.4167L5.26041 22.9583H3.01041C3.01041 22.9583 6.27083 6.52082 6.30208 6.38541C6.41666 5.88541 6.64583 5.49999 7.03124 5.24999C7.41666 4.96874 7.80208 4.83332 8.19791 4.83332C8.60416 4.83332 8.97916 4.92707 9.32291 5.11457C9.67708 5.29166 9.94791 5.55207 10.1458 5.88541L11.25 7.58332C11.5521 8.14582 11.9583 8.63541 12.4687 9.03124C12.9792 9.42707 13.5625 9.72915 14.1979 9.93749V8.03124ZM4.90624 5.13541L3.70833 4.88541C3.11458 4.72916 2.57291 4.85416 2.08333 5.18749C1.60416 5.52082 1.31249 5.97916 1.20833 6.58332L0.364576 10.7292C0.333326 11.0312 0.395827 11.3021 0.562493 11.5521C0.72916 11.8021 0.94791 11.9375 1.20833 11.9792L3.51041 12.4271L4.90624 5.13541ZM9.54166 0.0416565C8.39583 0.0416565 7.45833 0.979156 7.45833 2.12499C7.45833 3.27082 8.39583 4.20832 9.54166 4.20832C10.6875 4.20832 11.625 3.28124 11.625 2.12499C11.625 0.96874 10.6979 0.0416565 9.54166 0.0416565Z" fill="#847D7D"/>
</svg>
