<svg width="17" height="12" viewBox="0 0 17 12" fill="none" xmlns="http://www.w3.org/2000/svg">
<path d="M15.9658 0.489723L9.09027 7.33695C8.91331 7.51285 8.67394 7.61158 8.42443 7.61158C8.17492 7.61158 7.93555 7.51285 7.7586 7.33695L0.944433 0.541668C0.923484 0.618659 0.912377 0.697995 0.911377 0.777779V10.2222C0.911377 10.4727 1.01088 10.7129 1.188 10.89C1.36512 11.0672 1.60534 11.1667 1.85582 11.1667H15.078C15.3285 11.1667 15.5687 11.0672 15.7459 10.89C15.923 10.7129 16.0225 10.4727 16.0225 10.2222V0.777779C16.0187 0.679394 15.9996 0.582201 15.9658 0.489723ZM2.50277 10.2222H1.84638V9.54695L5.27943 6.14222L5.94527 6.80806L2.50277 10.2222ZM15.0686 10.2222H14.4075L10.965 6.80806L11.6308 6.14222L15.0639 9.54695L15.0686 10.2222Z" fill="#F8F8F8"/>
</svg>
