<svg width="17" height="21" viewBox="0 0 17 21" fill="none" xmlns="http://www.w3.org/2000/svg">
<path d="M16.9838 1.76999C16.9544 1.59373 16.8876 1.42582 16.7878 1.27757C16.688 1.12933 16.5576 1.00419 16.4054 0.910607C16.2532 0.817022 16.0827 0.757161 15.9054 0.735061C15.728 0.712961 15.548 0.729135 15.3775 0.782492L6.6275 3.51624C6.37308 3.59567 6.1507 3.75434 5.99284 3.9691C5.83497 4.18386 5.74989 4.44346 5.75 4.70999V14.875C5.18683 14.4526 4.49754 14.2328 3.79381 14.251C3.09008 14.2693 2.41314 14.5247 1.87267 14.9758C1.3322 15.4268 0.959855 16.0472 0.815973 16.7363C0.67209 17.4254 0.765095 18.1429 1.07992 18.7725C1.39474 19.4022 1.91294 19.9071 2.55056 20.2054C3.18817 20.5038 3.90785 20.5781 4.59298 20.4164C5.27812 20.2547 5.88857 19.8663 6.32544 19.3143C6.76231 18.7623 7 18.079 7 17.375V8.45999L15.75 5.72499V12.375C15.1868 11.9526 14.4975 11.7328 13.7938 11.751C13.0901 11.7693 12.4131 12.0247 11.8727 12.4758C11.3322 12.9268 10.9599 13.5472 10.816 14.2363C10.6721 14.9254 10.7651 15.6429 11.0799 16.2725C11.3947 16.9022 11.9129 17.4071 12.5506 17.7054C13.1882 18.0038 13.9078 18.0781 14.593 17.9164C15.2781 17.7547 15.8886 17.3663 16.3254 16.8143C16.7623 16.2623 17 15.579 17 14.875V1.97499C17 1.90499 16.9938 1.83749 16.9838 1.76999Z" fill="#847D7D"/>
</svg>
